<?xml version="1.0" encoding="utf-8" ?><svg xmlns="http://www.w3.org/2000/svg" xmlns:xlink="http://www.w3.org/1999/xlink" width="11119" height="9053" viewBox="0 0 11119 9053"><path fill="#6BBD56" transform="scale(17.9628 17.9623)" d="M285.213 20.2294C287.835 20.1021 298.277 25.9413 301.256 27.4481L331.107 42.7021L422.11 89.1087C409.785 89.1574 396.717 89.3283 384.427 89.0691C384.868 91.8178 384.677 97.8707 384.66 100.896L384.568 121.037L384.54 190.447L384.75 452.287C381.584 454.534 372.394 458.588 368.681 460.116C342.437 470.917 314.333 476.484 285.952 476.503C252.493 476.789 217.032 467.313 187.562 451.717L187.526 204.965L187.496 127.657L187.487 103.53C187.487 99.141 187.333 93.4352 187.663 89.1568C184.308 89.4104 178.005 89.2068 174.457 89.1975L149.094 89.1859L285.213 20.2294Z"/><path fill="#1F4494" transform="scale(17.9628 17.9623)" d="M398.536 105.021C400.686 105.649 407.061 109.172 409.441 110.405L431.533 121.761L508.267 160.933C519.511 166.663 531.622 173.179 542.913 178.53C537.795 178.117 530.797 178.295 525.55 178.297L498.094 178.285C498.474 182.109 498.262 190.382 498.265 194.509L498.271 225.143C498.29 234.916 498.225 244.689 498.077 254.461C498.031 260.215 498.102 266.03 497.873 271.777C496.392 308.809 487.439 339.619 469.183 371.664C451.871 401.312 427.625 426.321 398.524 444.548C398.933 432.231 398.61 418.295 398.618 405.836L398.657 331.425L398.536 105.021Z"/><path fill="#FCDB03" transform="scale(17.9628 17.9623)" d="M173.743 105.428C174.323 106.237 174.119 138.591 174.13 143.005L174.294 218.624L174.066 443.95C169.52 441.279 162.392 436.062 158.284 432.857C136.622 415.982 118.4 395.109 104.604 371.37C88.2955 343.761 78.3686 310.213 76.6863 278.181C76.3312 271.419 76.3579 264.483 76.3454 257.709L76.3222 230.189C76.4363 213.237 76.0246 195.728 76.4383 178.878C62.414 179.377 45.4682 178.009 31.8203 179.051C34.9724 176.828 42.6731 173.061 46.3112 171.164C55.8556 166.179 65.4276 161.246 75.027 156.368L131.221 127.419C145.279 120.207 159.906 112.948 173.743 105.428Z"/></svg>