<?xml version="1.0" encoding="utf-8" ?><svg xmlns="http://www.w3.org/2000/svg" xmlns:xlink="http://www.w3.org/1999/xlink" width="1024" height="1024" viewBox="0 0 1024 1024"><path fill="#F8FCFB" d="M393.345 247.743C424.471 246.868 449.648 249.282 477.356 266.054C499.94 279.723 517.128 299.542 522.769 325.914C528.762 353.935 527.176 390.82 511.681 415.52C502.419 430.284 486.967 441.67 469.898 445.252C452.758 448.849 430.849 445.784 416.057 436.157C405.799 429.557 398.635 419.1 396.186 407.15C389.349 374.568 413.596 345.679 448.137 356.938C453.388 358.649 458.236 362.902 462.886 365.948C465.737 357.413 465.425 346.985 462.087 338.665C448.139 303.893 401.953 301.485 372.014 313.066C347.672 322.548 328.086 341.3 317.556 365.207C310.718 380.705 308.639 404.904 311.936 421.913C317.537 450.804 335.976 481.168 353.638 504.328C359.077 511.461 365.287 519.33 371.112 525.576C404.615 561.502 439.516 595.917 475.678 629.146C485.633 637.763 495.384 648.857 506.869 655.392C512.005 657 516.295 657.72 517.026 651.534C524.472 588.486 552.652 541.98 585.711 489.067C598.905 468.004 611.858 446.792 624.57 425.435C635.337 407.198 645.271 390.062 653.401 370.393C660.622 352.923 663.795 324.094 641.368 315.959C639.461 315.345 634.263 314.886 632.757 316.359C633.209 318.831 637.524 324.198 639.047 326.781C641.203 330.461 642.682 334.499 643.413 338.701C644.467 344.97 643.668 349.534 639.784 354.59C635.175 360.588 628.406 365.242 620.847 366.304C613.498 367.265 606.073 365.213 600.259 360.616C593.561 355.257 589.494 347.043 588.876 338.773C588.143 328.979 587.702 309.151 594.52 301.487C603.318 291.597 617.741 283.303 630.908 281.727C643.585 279.893 661.301 285.918 670.812 294.406C721.372 339.529 672.716 415.76 648.427 458.927C637.269 478.759 626.311 498.703 615.553 518.755C600.528 546.176 581.971 580.213 572.421 609.769C562.338 641.634 558.13 675.067 560.004 708.438C560.692 719.181 562.606 730.276 563.607 741.184C564.612 752.128 559.776 759.478 548.2 760.314C544.169 760.605 538.101 759.405 534.403 757.591C519.831 750.445 506.452 740.951 493.277 731.537C460.299 708.119 429.422 681.804 398.962 655.255C382.039 640.504 366.505 627.226 350.188 611.625C340.776 602.468 331.703 592.971 322.984 583.152C285.731 541.688 257.927 497.639 249.095 441.739C247.345 430.659 248.188 420.963 247.841 409.954C245.13 323.951 302.993 249.242 393.345 247.743Z"/><path fill="#E47975" d="M358.527 413.229C361.799 413.923 364.8 414.529 367.316 416.929C371.563 420.979 380.668 447.393 383.832 455.039C395.499 482.909 412.469 508.247 433.8 529.645C438.997 534.95 445.239 539.336 450.406 544.684C457.629 552.16 458.47 555.443 450.606 562.519C445.466 562.613 444.44 562.152 439.839 560.243C410.994 545.554 377.839 507.775 360.684 480.685C353.666 469.601 341.277 449.274 339.016 436.281C338.258 431.926 339.048 426.813 339.975 422.515C346.131 416.724 350.006 413.984 358.527 413.229Z"/><path fill="#F4D412" d="M566.182 324.238C567.08 324.232 570.692 324.75 571.784 324.882C576.711 328.732 577.244 333.249 577.211 339.142C577.077 363.127 596.731 379.434 620.244 375.945C623.069 375.526 626.444 373.133 629.206 373.654C645.028 376.634 635.702 387.471 626.997 392.271C619.194 395.363 607.211 395.271 599.171 392.525C593.511 390.592 590.489 388.734 585.541 386.605C572.763 381.107 567.123 378.708 560.556 365.726C555.068 354.875 552.408 340.32 556.393 328.525C560.627 324.92 560.708 324.721 566.182 324.238Z"/></svg>